<?xml version="1.0" encoding="UTF-8" standalone="no"?>
<svg
   viewBox="0 0 635.99475 720.58325"
   width="635.99475"
   height="720.58325"
   version="1.1"
   id="svg114"
   xmlns="http://www.w3.org/2000/svg"
   xmlns:svg="http://www.w3.org/2000/svg">
  <defs
     id="defs114" />
  <g
     fill="None"
     fill-opacity="0"
     stroke="#fafafa"
     stroke-opacity="1"
     stroke-width="0.3"
     id="g2"
     transform="translate(-185.39189,-157.39125)">
    <path
       d="m 391,217 c 12.86,-4.57 27.72,-12.46 44,-11 16.28,1.46 35.29,-1.55 50.01,5.99 14.72,7.54 25.88,6.29 40.68,-0.3 14.81,-6.58 34.09,-5.72 50.31,-5.69 16.22,0.03 30.62,6.08 45,11 12.65,2.34 24.37,7.59 36,13 -72.32,-97.13 -234.49,-96.08 -307,0 13.03,-6.45 26.65,-10.81 41,-13 z"
       id="path2" />
  </g>
  <g
     fill="None"
     fill-opacity="0"
     stroke="#afafaf"
     stroke-opacity="1"
     stroke-width="0.3"
     id="g3"
     transform="translate(-185.39189,-157.39125)">
    <path
       d="m 391,217 c 19.38,-2.96 43.32,-2.96 62.78,-1.78 19.46,1.18 33.29,15.26 52.21,13.77 18.93,-1.49 33.14,-13.5 53,-14 19.87,-0.49 42.39,-1.57 62.01,2.01 -14.38,-4.92 -28.78,-10.97 -45,-11 -16.22,-0.03 -35.5,-0.89 -50.31,5.69 -14.8,6.59 -25.96,7.84 -40.68,0.3 -14.72,-7.54 -33.73,-4.53 -50.01,-5.99 -16.28,-1.46 -31.14,6.43 -44,11 z"
       id="path3" />
  </g>
  <g
     fill="None"
     fill-opacity="0"
     stroke="#f8f8f8"
     stroke-opacity="1"
     stroke-width="0.3"
     id="g4"
     transform="translate(-185.39189,-157.39125)">
    <path
       d="m 306,304 c 15.63,-21.44 40.64,-29.93 64.02,-38.98 23.39,-9.04 52.72,-20.32 77.98,-25.02 3.92,-1.28 9.26,-0.92 12,-4 -61.33,-19.61 -133.39,4.52 -154,68 z"
       id="path4" />
  </g>
  <g
     fill="None"
     fill-opacity="0"
     stroke="#f8f8f8"
     stroke-opacity="1"
     stroke-width="0.3"
     id="g5"
     transform="translate(-185.39189,-157.39125)">
    <path
       d="m 564,241 c 7.61,1.11 15.2,3.26 22.22,5.78 7.02,2.52 14.49,4.35 21.46,6.54 6.97,2.2 13.4,5.78 20.39,7.61 7,1.82 14.54,5.31 21.01,7.99 6.46,2.68 13.43,5.55 19.15,8.85 5.72,3.31 12.9,6.25 17.02,10.98 4.11,4.74 13.67,9.22 14.75,10.25 -19.01,-61.64 -97.17,-82.31 -153,-62 5.75,1.16 11.18,3.15 17,4 z"
       id="path5" />
  </g>
  <g
     fill="None"
     fill-opacity="0"
     stroke="#b0b0b0"
     stroke-opacity="1"
     stroke-width="0.3"
     id="g6"
     transform="translate(-185.39189,-157.39125)">
    <path
       d="m 306,304 c -1.5,1.3 -1.88,3.95 -2,6 21.58,-16.7 47.94,-23.91 72.31,-34.69 24.36,-10.79 46.73,-26.77 71.69,-35.31 -25.26,4.7 -54.59,15.98 -77.98,25.02 -23.38,9.05 -48.39,17.54 -64.02,38.98 z"
       id="path6" />
  </g>
  <g
     fill="None"
     fill-opacity="0"
     stroke="#b0b0b0"
     stroke-opacity="1"
     stroke-width="0.3"
     id="g7"
     transform="translate(-185.39189,-157.39125)">
    <path
       d="m 700,299 c -1.08,-1.03 -10.64,-5.51 -14.75,-10.25 -4.12,-4.73 -11.3,-7.67 -17.02,-10.98 -5.72,-3.3 -12.69,-6.17 -19.15,-8.85 -6.47,-2.68 -14.01,-6.17 -21.01,-7.99 -6.99,-1.83 -13.42,-5.41 -20.39,-7.61 -6.97,-2.19 -14.44,-4.02 -21.46,-6.54 -7.02,-2.52 -14.61,-4.67 -22.22,-5.78 23.72,9.8 46.31,24.7 70.31,34.69 23.99,10 48.83,17.96 69.69,34.31 -0.5,-3.91 -2.8,-7.63 -4,-11 z"
       id="path7" />
  </g>
  <g
     fill="None"
     fill-opacity="0"
     stroke="#f8f8f8"
     stroke-opacity="1"
     stroke-width="0.3"
     id="g8"
     transform="translate(-185.39189,-157.39125)">
    <path
       d="m 468,298 c 3.86,-3.86 8.36,-8.06 12,-12 9.15,-7.04 22.27,-32.7 6.02,-37.02 -16.24,-4.33 -31.76,5.27 -45.94,10.1 -14.18,4.82 -24.75,13.53 -37.85,20.15 -13.1,6.62 -24.85,13.8 -38.55,19.45 -13.71,5.65 -29.45,10.99 -43.68,14.32 30.49,6.87 60.31,-4.62 87,-17 -15.94,14.6 -36.2,22.96 -55.78,31.22 -19.57,8.26 -46.57,8.25 -59.22,26.78 60.6,-9.74 127.29,-14.37 176,-56 z"
       id="path8" />
  </g>
  <g
     fill="None"
     fill-opacity="0"
     stroke="#f8f8f8"
     stroke-opacity="1"
     stroke-width="0.3"
     id="g9"
     transform="translate(-185.39189,-157.39125)">
    <path
       d="m 606,300 c -2.13,-1.4 -5.73,-2.21 -6,-5 2.23,1.52 5.34,1.95 7,4 12.39,4.54 23.95,10.24 36.98,13.02 13.02,2.79 31.74,5.62 43.02,-0.02 -14.58,-1.58 -28.74,-7.2 -41.92,-13.08 -13.19,-5.87 -24.2,-10.73 -36.83,-18.17 -12.64,-7.43 -20.85,-12.25 -35.02,-18.98 -14.17,-6.73 -24.08,-10.56 -41.56,-13.44 -17.48,-2.88 -21.38,17.3 -10.59,28.59 10.8,11.28 15.34,19.2 27.67,27.33 12.33,8.12 21.6,14.44 35.17,19.83 13.58,5.38 25.6,10.28 40.07,13.93 14.47,3.65 30.84,6.81 45.99,9.01 15.14,2.21 31.16,4.43 46.02,7.98 C 703.3,337.16 679.09,335.01 659.68,328.32 640.27,321.64 623.23,311.35 606,300 Z"
       id="path9" />
  </g>
  <g
     fill="None"
     fill-opacity="0"
     stroke="#7f7f7f"
     stroke-opacity="1"
     stroke-width="0.3"
     id="g10"
     transform="translate(-185.39189,-157.39125)">
    <path
       d="m 468,298 c 4.2,-3.59 8.53,-7.6 12,-12 -3.64,3.94 -8.14,8.14 -12,12 z"
       id="path10" />
  </g>
  <g
     fill="None"
     fill-opacity="0"
     stroke="#f9f9f9"
     stroke-opacity="1"
     stroke-width="0.3"
     id="g11"
     transform="translate(-185.39189,-157.39125)">
    <path
       d="m 458,338 c -6.18,5.18 -12.83,9.02 -19.7,13.31 -6.86,4.28 -15.73,6.88 -22.52,10.47 -6.8,3.58 -17.94,4.09 -22.78,10.22 -2.89,6.32 -3.2,13.39 -5,20 68.19,-30.95 147.89,-28.76 218,-6 5.42,-2.49 1.68,-16.72 -3.75,-19.25 -5.44,-2.52 -12.25,-7.56 -18.48,-9.52 -6.22,-1.96 -12.2,-5.67 -18,-9 -5.8,-3.33 -11.51,-7.32 -16.77,-11.23 -17.91,-10.63 -33.54,-26.81 -45,-44 -11.81,17.11 -27.36,34.72 -46,45 z"
       id="path11" />
  </g>
  <g
     fill="None"
     fill-opacity="0"
     stroke="#ababab"
     stroke-opacity="1"
     stroke-width="0.3"
     id="g13"
     transform="translate(-185.39189,-157.39125)">
    <path
       d="m 606,386 c 3.58,2.54 8.46,4.35 13,5 3.2,-19.72 -11.38,-31.23 -27.32,-34.68 C 575.74,352.87 562.65,345.11 549,337 c 5.26,3.91 10.97,7.9 16.77,11.23 5.8,3.33 11.78,7.04 18,9 6.23,1.96 13.04,7 18.48,9.52 5.43,2.53 9.17,16.76 3.75,19.25 z"
       id="path13" />
  </g>
  <g
     fill="None"
     fill-opacity="0"
     stroke="#a9a9a9"
     stroke-opacity="1"
     stroke-width="0.3"
     id="g14"
     transform="translate(-185.39189,-157.39125)">
    <path
       d="m 393,372 c 4.84,-6.13 15.98,-6.64 22.78,-10.22 6.79,-3.59 15.66,-6.19 22.52,-10.47 6.87,-4.29 13.52,-8.13 19.7,-13.31 -11.26,6.21 -22.1,11.72 -34.31,15.69 -12.2,3.98 -25.61,4.55 -30.69,18.31 z"
       id="path14" />
  </g>
  <g
     fill="None"
     fill-opacity="0"
     stroke="#f9f9f9"
     stroke-opacity="1"
     stroke-width="0.3"
     id="g15"
     transform="translate(-185.39189,-157.39125)">
    <path
       d="m 271,419 c -0.04,2.09 -0.5,4.98 0,7 6.09,24.63 34.8,39.11 59.02,34.02 24.23,-5.09 43.15,-30.48 39.98,-56.02 -7.73,-23.19 -32.4,-37.13 -56.33,-33.33 -23.93,3.8 -42.25,24.05 -42.67,48.33 m 54,-18 c 22.55,5.25 14.09,43.84 -10.22,37.22 C 290.47,431.6 298.9,394.93 325,401 Z"
       id="path15" />
  </g>
  <g
     fill="None"
     fill-opacity="0"
     stroke="#f9f9f9"
     stroke-opacity="1"
     stroke-width="0.3"
     id="g16"
     transform="translate(-185.39189,-157.39125)">
    <path
       d="m 636,432 c 9.22,23.78 37.32,32.56 61.67,27.67 C 722.03,454.78 737.11,429.08 734,404 724.96,378.55 698.61,364.59 672.02,372.02 645.44,379.46 631.45,405.06 636,432 m 59,-31 c 23.07,5.72 13.6,44.4 -10.67,37.67 C 660.06,431.94 669.26,394.62 695,401 Z"
       id="path16" />
  </g>
  <g
     fill="None"
     fill-opacity="0"
     stroke="#121212"
     stroke-opacity="1"
     stroke-width="0.3"
     id="g17"
     transform="translate(-185.39189,-157.39125)">
    <path
       d="m 325,401 c -26.1,-6.07 -34.53,30.6 -10.22,37.22 24.31,6.62 32.77,-31.97 10.22,-37.22 z"
       id="path17" />
  </g>
  <g
     fill="None"
     fill-opacity="0"
     stroke="#121212"
     stroke-opacity="1"
     stroke-width="0.3"
     id="g18"
     transform="translate(-185.39189,-157.39125)">
    <path
       d="m 695,401 c -25.74,-6.38 -34.94,30.94 -10.67,37.67 C 708.6,445.4 718.07,406.72 695,401 Z"
       id="path18" />
  </g>
  <g
     fill="None"
     fill-opacity="0"
     stroke="#b1b1b1"
     stroke-opacity="1"
     stroke-width="0.3"
     id="g19"
     transform="translate(-185.39189,-157.39125)">
    <path
       d="m 271,426 c 2.43,16.98 8.24,33.43 23.92,43.08 15.69,9.64 37.93,9.12 52.85,-0.31 14.92,-9.43 24.88,-24.47 25.23,-41.77 0.05,-2.66 0.05,-5.34 0,-8 -0.11,-5.68 -1.38,-10.15 -3,-15 3.17,25.54 -15.75,50.93 -39.98,56.02 C 305.8,465.11 277.09,450.63 271,426 Z"
       id="path19" />
  </g>
  <g
     fill="None"
     fill-opacity="0"
     stroke="#b2b2b2"
     stroke-opacity="1"
     stroke-width="0.3"
     id="g20"
     transform="translate(-185.39189,-157.39125)">
    <path
       d="m 636,432 c 4.31,25.49 26.62,45.26 53,44 26.38,-1.26 47.1,-22.79 48,-49 0.08,-2.32 0.04,-4.68 0,-7 -0.1,-5.95 -1.19,-10.91 -3,-16 3.11,25.08 -11.97,50.78 -36.33,55.67 C 673.32,464.56 645.22,455.78 636,432 Z"
       id="path20" />
  </g>
  <g
     fill="None"
     fill-opacity="0"
     stroke="#424242"
     stroke-opacity="1"
     stroke-width="0.3"
     id="g21"
     transform="translate(-185.39189,-157.39125)">
    <path
       d="m 271,426 c -0.5,-2.02 -0.04,-4.91 0,-7 -0.28,2.34 -0.35,4.57 0,7 z"
       id="path21" />
  </g>
  <g
     fill="None"
     fill-opacity="0"
     stroke="#6b6b6b"
     stroke-opacity="1"
     stroke-width="0.3"
     id="g22"
     transform="translate(-185.39189,-157.39125)">
    <path
       d="m 373,427 c 0.31,-2.6 0.32,-5.34 0,-8 0.05,2.66 0.05,5.34 0,8 z"
       id="path22" />
  </g>
  <g
     fill="None"
     fill-opacity="0"
     stroke="#5a5a5a"
     stroke-opacity="1"
     stroke-width="0.3"
     id="g23"
     transform="translate(-185.39189,-157.39125)">
    <path
       d="m 737,427 c 0.34,-2.37 0.29,-4.6 0,-7 0.04,2.32 0.08,4.68 0,7 z"
       id="path23" />
  </g>
  <g
     fill="None"
     fill-opacity="0"
     stroke="#fafafa"
     stroke-opacity="1"
     stroke-width="0.3"
     id="g24"
     transform="translate(-185.39189,-157.39125)">
    <path
       d="m 542,638 c 12.49,-9.01 22.56,-21.65 32.25,-33.75 9.7,-12.09 18.57,-25.84 25.52,-40.48 6.95,-14.64 13.16,-32.67 17.22,-48.78 4.06,-16.11 15.17,-39.2 -3.99,-48.99 -10.72,-3.67 -23.03,-8.56 -34.33,-9.67 -11.3,-1.11 -25.82,-9.16 -36.97,-5.63 -11.15,3.53 -9.42,24.6 -8.03,34.63 1.4,10.03 7.58,25.61 5.31,36.65 -2.27,11.03 -9.52,19.18 -18.75,25.25 -9.23,6.07 -23.65,-1.97 -28.48,-9.98 -4.83,-8.01 -25.92,-11.08 -19.67,-22.17 6.26,-11.09 25.27,6.68 35.69,-0.31 10.42,-6.99 9.23,-22.62 9.23,-34.77 -0.96,-9.89 -1.37,-21.39 -1,-32 -50.33,-1.86 -97.97,8.5 -143,26 0.89,47.97 15.21,92.08 46.08,128.92 30.87,36.83 77.7,52.83 122.92,35.08 m -36,-26 c -2.61,0.47 -4.47,0.41 -7,0 -8.26,-0.41 -19.58,-5.58 -17,-16 8.68,-4.69 18.81,1.34 28,-2 6.45,-3.12 5.01,-10.77 5,-17 -1,0 -2,0 -3,0 -8.72,3.26 -14.76,0.12 -23.22,-3.78 -8.47,-3.89 -15.24,4.8 -24.78,2.78 -9.54,-2.02 1.35,-8.62 6.75,-12.25 5.4,-3.63 10.35,-12.82 18.25,-11.75 7.9,1.07 13.75,7.12 20.7,1.7 6.95,-5.43 16.72,-0.6 21.55,5.05 4.83,5.65 11.17,9.41 17.75,12.25 -12.28,13.21 -19.15,40.26 -43,41 z"
       id="path24" />
  </g>
  <g
     fill="None"
     fill-opacity="0"
     stroke="#7f7f7f"
     stroke-opacity="1"
     stroke-width="0.3"
     id="g25"
     transform="translate(-185.39189,-157.39125)">
    <path
       d="m 517,480 c 0,-4.59 0.6,-12.77 0,-17 -0.6,-4.23 2.21,-12.76 -1,-15 -0.37,10.61 0.04,22.11 1,32 z"
       id="path25" />
  </g>
  <g
     fill="None"
     fill-opacity="0"
     stroke="#f7f7f7"
     stroke-opacity="1"
     stroke-width="0.3"
     id="g26"
     transform="translate(-185.39189,-157.39125)">
    <path
       d="m 360,496 c -9.41,10.29 -28.89,18.39 -42,22 -11.07,3.54 -22.03,7.78 -34,8 -8.9,22.05 -40.71,21.81 -52.25,2.25 -11.53,-19.57 -7.9,-45.83 6.25,-63.25 -28.91,13.26 -40.47,50.54 -22.25,77.25 18.21,26.72 61.73,23.63 86.56,12.06 C 327.13,542.73 354.05,523.99 360,496 Z"
       id="path26" />
  </g>
  <g
     fill="None"
     fill-opacity="0"
     stroke="#a9a9a9"
     stroke-opacity="1"
     stroke-width="0.3"
     id="g27"
     transform="translate(-185.39189,-157.39125)">
    <path
       d="m 774,470 c -0.01,-0.33 0.67,-1.01 1,-1 -1.01,-1.71 -2.78,-4.05 -5,-4 0.58,2.1 3.05,3.39 4,5 z"
       id="path27" />
  </g>
  <g
     fill="None"
     fill-opacity="0"
     stroke="#aeaeae"
     stroke-opacity="1"
     stroke-width="0.3"
     id="g28"
     transform="translate(-185.39189,-157.39125)">
    <path
       d="m 542,638 c 9.2,-3.61 18.37,-8.63 26.3,-14.7 7.94,-6.06 15.11,-11.23 21.95,-19.05 6.83,-7.83 11.51,-15.03 16.98,-24.02 5.47,-8.99 9.01,-17.74 12.99,-28.01 3.99,-10.27 6.18,-20.28 9.45,-31.55 3.28,-11.27 2.31,-24.2 4.4,-36.6 2.1,-12.39 -10.5,-14.46 -21.07,-18.07 19.16,9.79 8.05,32.88 3.99,48.99 -4.06,16.11 -10.27,34.14 -17.22,48.78 -6.95,14.64 -15.82,28.39 -25.52,40.48 -9.69,12.1 -19.76,24.74 -32.25,33.75 z"
       id="path28" />
  </g>
  <g
     fill="None"
     fill-opacity="0"
     stroke="#f6f6f6"
     stroke-opacity="1"
     stroke-width="0.3"
     id="g29"
     transform="translate(-185.39189,-157.39125)">
    <path
       d="m 774,470 c 10.21,18.29 13.31,43.7 -0.25,60.75 C 760.2,547.8 731.81,547.13 724,526 c -15.7,-0.38 -29.38,-7.92 -44,-12 -5.9,-1.64 -12.52,-4.79 -17.23,-8.77 -4.71,-3.98 -12.51,-5.44 -15.77,-11.23 1.11,16.58 15.91,29.49 27.75,41.25 11.85,11.75 28.73,18.58 45.23,23.77 16.49,5.2 40.71,6.12 56.79,-3.25 16.08,-9.37 24.93,-25.82 24.22,-44.76 C 800.28,492.06 788.57,480.15 775,469 c -0.33,-0.01 -1.01,0.67 -1,1 z"
       id="path29" />
  </g>
  <g
     fill="None"
     fill-opacity="0"
     stroke="#8f8f8f"
     stroke-opacity="1"
     stroke-width="0.3"
     id="g30"
     transform="translate(-185.39189,-157.39125)">
    <path
       d="m 647,494 c 3.26,5.79 11.06,7.25 15.77,11.23 4.71,3.98 11.33,7.13 17.23,8.77 -5,-2.56 -13.59,-8.88 -18.3,-11.7 -4.72,-2.82 -14.87,-10.81 -14.7,-8.3 z"
       id="path30" />
  </g>
  <g
     fill="None"
     fill-opacity="0"
     stroke="#909090"
     stroke-opacity="1"
     stroke-width="0.3"
     id="g31"
     transform="translate(-185.39189,-157.39125)">
    <path
       d="m 318,518 c 13.11,-3.61 32.59,-11.71 42,-22 0.03,-1.14 1.53,-1.72 1,-3 -13.34,9.99 -28.37,17.77 -43,25 z"
       id="path31" />
  </g>
  <g
     fill="None"
     fill-opacity="0"
     stroke="#f5f5f5"
     stroke-opacity="1"
     stroke-width="0.3"
     id="g32"
     transform="translate(-185.39189,-157.39125)">
    <path
       d="m 262,499 c -20.31,-4.21 -27.26,23.96 -8.02,30.02 19.23,6.07 27.16,-26.06 8.02,-30.02 z"
       id="path32" />
  </g>
  <g
     fill="None"
     fill-opacity="0"
     stroke="#f5f5f5"
     stroke-opacity="1"
     stroke-width="0.3"
     id="g33"
     transform="translate(-185.39189,-157.39125)">
    <path
       d="m 754,499 c -20.26,-4.2 -27.41,24.06 -8.02,30.02 19.39,5.97 27.06,-26.08 8.02,-30.02 z"
       id="path33" />
  </g>
  <g
     fill="None"
     fill-opacity="0"
     stroke="#ababab"
     stroke-opacity="1"
     stroke-width="0.3"
     id="g34"
     transform="translate(-185.39189,-157.39125)">
    <path
       d="m 360,542 c -2.06,2.61 -4.61,5.81 -7,8 8.24,-6.23 11.81,-5.61 14.32,4.68 2.51,10.29 -0.47,16.87 -6.57,24.07 -6.09,7.2 -17.47,5.65 -25.75,4.25 10.43,6.45 31.81,9.01 36.22,-5.78 4.42,-14.78 -0.57,-28.55 -5.22,-42.22 -2.67,1.61 -4.08,4.56 -6,7 z"
       id="path34" />
  </g>
  <g
     fill="None"
     fill-opacity="0"
     stroke="#afafaf"
     stroke-opacity="1"
     stroke-width="0.3"
     id="g35"
     transform="translate(-185.39189,-157.39125)">
    <path
       d="m 635,562 c -0.1,2.63 -0.14,5.37 0,8 1.17,21.49 21.22,19.97 37,14 -7.88,1.09 -18.65,0.63 -25.25,-6.75 -6.6,-7.38 -7.5,-14.72 -4.97,-25.47 2.52,-10.75 10.84,-1.07 18.22,3.22 -6.32,-6.62 -12.37,-13.82 -19,-20 -1.97,9.08 -5.64,17.5 -6,27 z"
       id="path35" />
  </g>
  <g
     fill="None"
     fill-opacity="0"
     stroke="#585858"
     stroke-opacity="1"
     stroke-width="0.3"
     id="g36"
     transform="translate(-185.39189,-157.39125)">
    <path
       d="m 350,552 c 0.94,-0.71 2.1,-1.32 3,-2 2.39,-2.19 4.94,-5.39 7,-8 -3.01,3.25 -6.8,6.8 -10,10 z"
       id="path36" />
  </g>
  <g
     fill="None"
     fill-opacity="0"
     stroke="#f7f7f7"
     stroke-opacity="1"
     stroke-width="0.3"
     id="g37"
     transform="translate(-185.39189,-157.39125)">
    <path
       d="m 353,550 c -0.9,0.68 -2.06,1.29 -3,2 -10.6,10.35 -24.78,15.51 -38,20 6.3,5.31 14.72,9.6 23,11 8.28,1.4 19.66,2.95 25.75,-4.25 6.1,-7.2 9.08,-13.78 6.57,-24.07 C 364.81,544.39 361.24,543.77 353,550 Z"
       id="path37" />
  </g>
  <g
     fill="None"
     fill-opacity="0"
     stroke="#f8f8f8"
     stroke-opacity="1"
     stroke-width="0.3"
     id="g38"
     transform="translate(-185.39189,-157.39125)">
    <path
       d="m 672,584 c 8.42,-2.99 17.14,-6.17 24,-12 -13.25,-2.78 -24.59,-10.37 -36,-17 -7.38,-4.29 -15.7,-13.97 -18.22,-3.22 -2.53,10.75 -1.63,18.09 4.97,25.47 6.6,7.38 17.37,7.84 25.25,6.75 z"
       id="path38" />
  </g>
  <g
     fill="None"
     fill-opacity="0"
     stroke="#141414"
     stroke-opacity="1"
     stroke-width="0.3"
     id="g39"
     transform="translate(-185.39189,-157.39125)">
    <path
       d="m 512,577 c 5.9,-2.21 12.78,-7 19,-1 -2.04,10.2 -11.93,15.47 -21,18 -9.19,3.34 -19.32,-2.69 -28,2 -2.58,10.42 8.74,15.59 17,16 2.28,0.11 4.72,0.14 7,0 23.85,-0.74 30.72,-27.79 43,-41 -6.58,-2.84 -12.92,-6.6 -17.75,-12.25 -4.83,-5.65 -14.6,-10.48 -21.55,-5.05 -6.95,5.42 -12.8,-0.63 -20.7,-1.7 -7.9,-1.07 -12.85,8.12 -18.25,11.75 -5.4,3.63 -16.29,10.23 -6.75,12.25 9.54,2.02 16.31,-6.67 24.78,-2.78 8.46,3.9 14.5,7.04 23.22,3.78 z"
       id="path39" />
  </g>
  <g
     fill="None"
     fill-opacity="0"
     stroke="#656565"
     stroke-opacity="1"
     stroke-width="0.3"
     id="g40"
     transform="translate(-185.39189,-157.39125)">
    <path
       d="m 635,570 c -0.14,-2.63 -0.1,-5.37 0,-8 -0.39,2.75 -0.46,5.17 0,8 z"
       id="path40" />
  </g>
  <g
     fill="None"
     fill-opacity="0"
     stroke="#b0b0b0"
     stroke-opacity="1"
     stroke-width="0.3"
     id="g41"
     transform="translate(-185.39189,-157.39125)">
    <path
       d="m 512,577 c 1,0 2,0 3,0 0.01,6.23 1.45,13.88 -5,17 9.07,-2.53 18.96,-7.8 21,-18 -6.22,-6 -13.1,-1.21 -19,1 z"
       id="path41" />
  </g>
  <g
     fill="None"
     fill-opacity="0"
     stroke="#f5f5f5"
     stroke-opacity="1"
     stroke-width="0.3"
     id="g42"
     transform="translate(-185.39189,-157.39125)">
    <path
       d="m 273,575 c -13.51,-1.95 -8.8,14.73 -4.77,21.77 4.03,7.05 7.47,17.93 10.99,26.01 3.53,8.07 7.51,16.48 10.8,25.2 3.3,8.71 7.63,17.03 10.67,26.33 3.05,9.29 9.28,14.66 10.54,25.46 1.26,10.81 19.26,12.77 17.7,1.3 -1.57,-11.46 -7.69,-15.75 -10.61,-25.39 -2.92,-9.65 -7.35,-17.61 -10.55,-26.45 -3.2,-8.84 -7.39,-17.11 -10.79,-25.2 -3.41,-8.1 -6.87,-19.15 -11,-26 C 281.84,591.17 281.84,576.28 273,575 Z"
       id="path42" />
  </g>
  <g
     fill="None"
     fill-opacity="0"
     stroke="#f5f5f5"
     stroke-opacity="1"
     stroke-width="0.3"
     id="g43"
     transform="translate(-185.39189,-157.39125)">
    <path
       d="m 766,575 c -13.87,-3.33 -9.14,15.19 -4.92,21.92 4.21,6.73 6.83,17.49 10.6,25.4 3.77,7.92 7.25,17.83 10.55,26.45 3.3,8.62 8.04,15.81 10.84,25.16 2.81,9.34 8.7,15.08 10.16,25.84 1.46,10.76 19.41,12.69 17.7,1.3 -1.72,-11.39 -7.53,-16.12 -10.16,-25.84 -2.63,-9.72 -7.68,-16.39 -10.79,-25.21 -3.12,-8.81 -7.04,-18.36 -10.67,-26.32 -3.64,-7.97 -6.56,-18.79 -10.53,-25.48 C 774.8,591.54 774.12,576.95 766,575 Z"
       id="path43" />
  </g>
  <g
     fill="None"
     fill-opacity="0"
     stroke="#f6f6f6"
     stroke-opacity="1"
     stroke-width="0.3"
     id="g44"
     transform="translate(-185.39189,-157.39125)">
    <path
       d="m 247,576 c -11.87,-4.83 -14.15,11.81 -17.69,19.31 -3.55,7.49 -6.94,17.25 -10.53,25.47 -3.59,8.22 -7.01,16.42 -10.8,25.2 -3.8,8.77 -6.02,16.27 -10.2,25.8 -4.19,9.52 -5.47,14.33 -10.8,25.2 -5.34,10.86 11.05,17.29 15.09,6.09 4.05,-11.19 6.3,-16.32 10.16,-25.84 3.86,-9.52 7.06,-16.86 10.46,-25.54 3.41,-8.67 7.77,-17.47 10.54,-25.46 2.76,-7.99 8.94,-18.25 10.84,-25.16 1.91,-6.9 12.62,-21.13 2.93,-25.07 z"
       id="path44" />
  </g>
  <g
     fill="None"
     fill-opacity="0"
     stroke="#f6f6f6"
     stroke-opacity="1"
     stroke-width="0.3"
     id="g45"
     transform="translate(-185.39189,-157.39125)">
    <path
       d="m 740,576 c -11.06,-4.5 -14.19,9.76 -17.08,16.92 -2.88,7.17 -6.69,15.68 -9.94,23.06 -3.26,7.37 -6.61,15.79 -9.67,23.33 -3.07,7.53 -7.66,16.16 -10.33,23.67 -2.68,7.5 -7.61,16.19 -9.66,23.34 -2.05,7.15 -11.5,17.28 -2.39,22.75 9.11,5.47 14.73,-8.3 16.76,-15.38 2.04,-7.07 7.26,-15.72 9.99,-23.01 2.73,-7.29 6.5,-16.22 9.54,-23.46 3.05,-7.24 7.3,-17.01 10.01,-23.99 2.71,-6.99 7.88,-17.11 9.85,-23.15 1.96,-6.05 11.67,-20.52 2.92,-24.08 z"
       id="path45" />
  </g>
  <g
     fill="None"
     fill-opacity="0"
     stroke="#878787"
     stroke-opacity="1"
     stroke-width="0.3"
     id="g46"
     transform="translate(-185.39189,-157.39125)">
    <path
       d="m 506,612 c -2.28,0.14 -4.72,0.11 -7,0 2.53,0.41 4.39,0.47 7,0 z"
       id="path46" />
  </g>
  <g
     fill="None"
     fill-opacity="0"
     stroke="#fbfbfb"
     stroke-opacity="1"
     stroke-width="0.3"
     id="g47"
     transform="translate(-185.39189,-157.39125)">
    <path
       d="m 646,830 c 1.08,-6.62 -7.45,-11.8 -10.25,-17.75 -2.8,-5.96 -9.18,-9.11 -14.83,-13.17 -5.64,-4.07 -13.06,-8.21 -20.92,-8.08 -11.94,1.94 -26.39,5.03 -35.77,13.23 -9.38,8.2 -19.46,11.4 -27.48,21.52 -8.02,10.12 -29.33,14.25 -25.53,-2.53 3.81,-16.78 6.73,-26.33 6.78,-42.22 0.05,-15.89 -2.71,-28.14 -7.68,-41.32 C 505.36,726.5 500.4,720.64 492,710 c -2.42,-2.61 -5.51,-5.51 -8,-8 -11.57,-9.89 -22.45,-20.13 -34,-30 -5.32,-4.55 -10.5,-9.73 -15,-15 -10.35,-11.7 -20.44,-23.56 -28,-37 4.88,35.33 10.76,83.79 -4.69,117.31 -15.46,33.51 -43.02,48.06 -75.31,59.69 77.82,96.26 224.22,105.61 319,33 z"
       id="path47" />
  </g>
  <g
     fill="None"
     fill-opacity="0"
     stroke="#848484"
     stroke-opacity="1"
     stroke-width="0.3"
     id="g48"
     transform="translate(-185.39189,-157.39125)">
    <path
       d="m 450,672 c -4.87,-4.87 -10.08,-10.08 -15,-15 4.5,5.27 9.68,10.45 15,15 z"
       id="path48" />
  </g>
  <g
     fill="None"
     fill-opacity="0"
     stroke="#757575"
     stroke-opacity="1"
     stroke-width="0.3"
     id="g49"
     transform="translate(-185.39189,-157.39125)">
    <path
       d="m 492,710 c -2.33,-2.95 -5.1,-5.52 -8,-8 2.49,2.49 5.58,5.39 8,8 z"
       id="path49" />
  </g>
  <g
     fill="None"
     fill-opacity="0"
     stroke="#fafafa"
     stroke-opacity="1"
     stroke-width="0.3"
     id="g50"
     transform="translate(-185.39189,-157.39125)">
    <path
       d="m 217,769 c 6.71,2.24 14.93,0.37 22,1 7.07,0.63 14.89,-0.57 21.22,-1.78 6.33,-1.2 13.27,-1.78 18.8,-4.2 5.54,-2.41 10.99,-4.68 16.05,-6.95 5.07,-2.26 9.51,-6.19 13.18,-9.82 3.66,-3.63 10.66,-5.59 13,-10 2.34,-4.41 12.06,-5.99 12.75,-10.25 -0.51,-7.95 -20.88,-3.09 -29,-4 -8.12,-0.91 -23.36,0.27 -33,0 -9.64,-0.27 -22.76,-0.19 -33,0 -10.24,0.19 -22.66,-0.77 -33,0 -10.34,0.77 -24.62,-5.04 -19.31,10.31 5.32,15.34 17.24,26.82 30.31,35.69 z"
       id="path50" />
  </g>
  <g
     fill="None"
     fill-opacity="0"
     stroke="#fafafa"
     stroke-opacity="1"
     stroke-width="0.3"
     id="g51"
     transform="translate(-185.39189,-157.39125)">
    <path
       d="m 689,756 c 2.2,2.2 4.78,4.95 7,7 2.59,2.04 5.09,3.75 8,5 8.13,3.51 20.22,1.97 29,2 8.78,0.03 19.46,-0.99 27.02,-3.98 7.57,-2.98 16.62,-3.82 23.05,-7.95 6.44,-4.13 13.65,-6.91 18.63,-12.37 4.97,-5.46 13.93,-7.74 18.3,-12.7 4.94,-13.07 -5.86,-9.76 -16,-10 -10.14,-0.24 -19.81,0.25 -30,0 -10.19,-0.25 -19.65,0.42 -30,0 -10.35,-0.42 -19.2112,-0.39211 -30,0 -10.81196,0.39295 -18.18284,0.4796 -30,0 -11.46217,-0.46519 -11.73,6.5 -6.77,14.77 4.96,8.27 5.77,11.21 11.77,18.23 z"
       id="path51" />
  </g>
  <g
     fill="None"
     fill-opacity="0"
     stroke="#b1b1b1"
     stroke-opacity="1"
     stroke-width="0.3"
     id="g52"
     transform="translate(-185.39189,-157.39125)">
    <path
       d="m 217,769 c 11.1,7.54 22.85,13 37,13 3.33,0 6.67,0 10,0 8.31,0 19.03,-2.42 25.92,-6.08 6.9,-3.65 14.34,-6.21 19.33,-11.67 4.99,-5.46 12.03,-9.91 14.83,-16.17 2.8,-6.26 10.36,-14.22 9.92,-21.08 -0.69,4.26 -10.41,5.84 -12.75,10.25 -2.34,4.41 -9.34,6.37 -13,10 -3.67,3.63 -8.11,7.56 -13.18,9.82 -5.06,2.27 -10.51,4.54 -16.05,6.95 -5.53,2.42 -12.47,3 -18.8,4.2 -6.33,1.21 -14.15,2.41 -21.22,1.78 -7.07,-0.63 -15.29,1.24 -22,-1 z"
       id="path52" />
  </g>
  <g
     fill="None"
     fill-opacity="0"
     stroke="#b1b1b1"
     stroke-opacity="1"
     stroke-width="0.3"
     id="g53"
     transform="translate(-185.39189,-157.39125)">
    <path
       d="m 704,768 c 40.25,27.33 98.14,12.21 116,-35 -4.37,4.96 -13.33,7.24 -18.3,12.7 -4.98,5.46 -12.19,8.24 -18.63,12.37 -6.43,4.13 -15.48,4.97 -23.05,7.95 -7.56,2.99 -18.24,4.01 -27.02,3.98 -8.78,-0.03 -20.87,1.51 -29,-2 z"
       id="path53" />
  </g>
  <g
     fill="None"
     fill-opacity="0"
     stroke="#7b7b7b"
     stroke-opacity="1"
     stroke-width="0.3"
     id="g54"
     transform="translate(-185.39189,-157.39125)">
    <path
       d="m 696,763 c -2.22,-2.05 -4.8,-4.8 -7,-7 2.14,2.51 4.34,4.9 7,7 z"
       id="path54" />
  </g>
  <g
     fill="None"
     fill-opacity="0"
     stroke="#5a5a5a"
     stroke-opacity="1"
     stroke-width="0.3"
     id="g55"
     transform="translate(-185.39189,-157.39125)">
    <path
       d="m 264,782 c -3.33,0 -6.67,0 -10,0 3.07,0.3 6.86,0.3 10,0 z"
       id="path55" />
  </g>
  <g
     fill="None"
     fill-opacity="0"
     stroke="#626262"
     stroke-opacity="1"
     stroke-width="0.3"
     id="g56"
     transform="translate(-185.39189,-157.39125)">
    <path
       d="m 611,790 c 3.33,0 6.67,-0.07 10,0 -3.17,-0.38 -6.8,-0.31 -10,0 z"
       id="path56" />
  </g>
  <g
     fill="None"
     fill-opacity="0"
     stroke="#b2b2b2"
     stroke-opacity="1"
     stroke-width="0.3"
     id="g57"
     transform="translate(-185.39189,-157.39125)">
    <path
       d="m 600,791 c 7.86,-0.13 15.28,4.01 20.92,8.08 5.65,4.06 12.03,7.21 14.83,13.17 2.8,5.95 11.33,11.13 10.25,17.75 5.49,-4.2 8.72,-6.72 14.75,-11.25 6.03,-4.53 2.33,-10.17 -3,-14.5 -5.33,-4.33 -9.78,-7.28 -16.06,-9.94 -6.27,-2.67 -13.67,-4.17 -20.69,-4.31 -3.33,-0.07 -6.67,0 -10,0 -3.85,0 -7.79,0.48 -11,1 z"
       id="path57" />
  </g>
  <g
     fill="#fafafa"
     fill-opacity="1"
     stroke="None"
     id="g59"
     transform="translate(-185.39189,-157.39125)">
    <path
       d="m 391,217 c 12.86,-4.57 27.72,-12.46 44,-11 16.28,1.46 35.29,-1.55 50.01,5.99 14.72,7.54 25.88,6.29 40.68,-0.3 14.81,-6.58 34.09,-5.72 50.31,-5.69 16.22,0.03 30.62,6.08 45,11 12.65,2.34 24.37,7.59 36,13 -72.32,-97.13 -234.49,-96.08 -307,0 13.03,-6.45 26.65,-10.81 41,-13 z"
       id="path59" />
  </g>
  <g
     fill="#afafaf"
     fill-opacity="1"
     stroke="None"
     id="g60"
     transform="translate(-185.39189,-157.39125)">
    <path
       d="m 391,217 c 19.38,-2.96 43.32,-2.96 62.78,-1.78 19.46,1.18 33.29,15.26 52.21,13.77 18.93,-1.49 33.14,-13.5 53,-14 19.87,-0.49 42.39,-1.57 62.01,2.01 -14.38,-4.92 -28.78,-10.97 -45,-11 -16.22,-0.03 -35.5,-0.89 -50.31,5.69 -14.8,6.59 -25.96,7.84 -40.68,0.3 -14.72,-7.54 -33.73,-4.53 -50.01,-5.99 -16.28,-1.46 -31.14,6.43 -44,11 z"
       id="path60" />
  </g>
  <g
     fill="#f8f8f8"
     fill-opacity="1"
     stroke="None"
     id="g61"
     transform="translate(-185.39189,-157.39125)">
    <path
       d="m 306,304 c 15.63,-21.44 40.64,-29.93 64.02,-38.98 23.39,-9.04 52.72,-20.32 77.98,-25.02 3.92,-1.28 9.26,-0.92 12,-4 -61.33,-19.61 -133.39,4.52 -154,68 z"
       id="path61" />
  </g>
  <g
     fill="#f8f8f8"
     fill-opacity="1"
     stroke="None"
     id="g62"
     transform="translate(-185.39189,-157.39125)">
    <path
       d="m 564,241 c 7.61,1.11 15.2,3.26 22.22,5.78 7.02,2.52 14.49,4.35 21.46,6.54 6.97,2.2 13.4,5.78 20.39,7.61 7,1.82 14.54,5.31 21.01,7.99 6.46,2.68 13.43,5.55 19.15,8.85 5.72,3.31 12.9,6.25 17.02,10.98 4.11,4.74 13.67,9.22 14.75,10.25 -19.01,-61.64 -97.17,-82.31 -153,-62 5.75,1.16 11.18,3.15 17,4 z"
       id="path62" />
  </g>
  <g
     fill="#b0b0b0"
     fill-opacity="1"
     stroke="None"
     id="g63"
     transform="translate(-185.39189,-157.39125)">
    <path
       d="m 306,304 c -1.5,1.3 -1.88,3.95 -2,6 21.58,-16.7 47.94,-23.91 72.31,-34.69 24.36,-10.79 46.73,-26.77 71.69,-35.31 -25.26,4.7 -54.59,15.98 -77.98,25.02 -23.38,9.05 -48.39,17.54 -64.02,38.98 z"
       id="path63" />
  </g>
  <g
     fill="#b0b0b0"
     fill-opacity="1"
     stroke="None"
     id="g64"
     transform="translate(-185.39189,-157.39125)">
    <path
       d="m 700,299 c -1.08,-1.03 -10.64,-5.51 -14.75,-10.25 -4.12,-4.73 -11.3,-7.67 -17.02,-10.98 -5.72,-3.3 -12.69,-6.17 -19.15,-8.85 -6.47,-2.68 -14.01,-6.17 -21.01,-7.99 -6.99,-1.83 -13.42,-5.41 -20.39,-7.61 -6.97,-2.19 -14.44,-4.02 -21.46,-6.54 -7.02,-2.52 -14.61,-4.67 -22.22,-5.78 23.72,9.8 46.31,24.7 70.31,34.69 23.99,10 48.83,17.96 69.69,34.31 -0.5,-3.91 -2.8,-7.63 -4,-11 z"
       id="path64" />
  </g>
  <g
     fill="#f8f8f8"
     fill-opacity="1"
     stroke="None"
     id="g65"
     transform="translate(-185.39189,-157.39125)">
    <path
       d="m 468,298 c 3.86,-3.86 8.36,-8.06 12,-12 9.15,-7.04 22.27,-32.7 6.02,-37.02 -16.24,-4.33 -31.76,5.27 -45.94,10.1 -14.18,4.82 -24.75,13.53 -37.85,20.15 -13.1,6.62 -24.85,13.8 -38.55,19.45 -13.71,5.65 -29.45,10.99 -43.68,14.32 30.49,6.87 60.31,-4.62 87,-17 -15.94,14.6 -36.2,22.96 -55.78,31.22 -19.57,8.26 -46.57,8.25 -59.22,26.78 60.6,-9.74 127.29,-14.37 176,-56 z"
       id="path65" />
  </g>
  <g
     fill="#f8f8f8"
     fill-opacity="1"
     stroke="None"
     id="g66"
     transform="translate(-185.39189,-157.39125)">
    <path
       d="m 606,300 c -2.13,-1.4 -5.73,-2.21 -6,-5 2.23,1.52 5.34,1.95 7,4 12.39,4.54 23.95,10.24 36.98,13.02 13.02,2.79 31.74,5.62 43.02,-0.02 -14.58,-1.58 -28.74,-7.2 -41.92,-13.08 -13.19,-5.87 -24.2,-10.73 -36.83,-18.17 -12.64,-7.43 -20.85,-12.25 -35.02,-18.98 -14.17,-6.73 -24.08,-10.56 -41.56,-13.44 -17.48,-2.88 -21.38,17.3 -10.59,28.59 10.8,11.28 15.34,19.2 27.67,27.33 12.33,8.12 21.6,14.44 35.17,19.83 13.58,5.38 25.6,10.28 40.07,13.93 14.47,3.65 30.84,6.81 45.99,9.01 15.14,2.21 31.16,4.43 46.02,7.98 C 703.3,337.16 679.09,335.01 659.68,328.32 640.27,321.64 623.23,311.35 606,300 Z"
       id="path66" />
  </g>
  <g
     fill="#7f7f7f"
     fill-opacity="1"
     stroke="None"
     id="g67"
     transform="translate(-185.39189,-157.39125)">
    <path
       d="m 468,298 c 4.2,-3.59 8.53,-7.6 12,-12 -3.64,3.94 -8.14,8.14 -12,12 z"
       id="path67" />
  </g>
  <g
     fill="#f9f9f9"
     fill-opacity="1"
     stroke="None"
     id="g68"
     transform="translate(-185.39189,-157.39125)">
    <path
       d="m 458,338 c -6.18,5.18 -12.83,9.02 -19.7,13.31 -6.86,4.28 -15.73,6.88 -22.52,10.47 -6.8,3.58 -17.94,4.09 -22.78,10.22 -2.89,6.32 -3.2,13.39 -5,20 68.19,-30.95 147.89,-28.76 218,-6 5.42,-2.49 1.68,-16.72 -3.75,-19.25 -5.44,-2.52 -12.25,-7.56 -18.48,-9.52 -6.22,-1.96 -12.2,-5.67 -18,-9 -5.8,-3.33 -11.51,-7.32 -16.77,-11.23 -17.91,-10.63 -33.54,-26.81 -45,-44 -11.81,17.11 -27.36,34.72 -46,45 z"
       id="path68" />
  </g>
  <g
     fill="#ababab"
     fill-opacity="1"
     stroke="None"
     id="g70"
     transform="translate(-185.39189,-157.39125)">
    <path
       d="m 606,386 c 3.58,2.54 8.46,4.35 13,5 3.2,-19.72 -11.38,-31.23 -27.32,-34.68 C 575.74,352.87 562.65,345.11 549,337 c 5.26,3.91 10.97,7.9 16.77,11.23 5.8,3.33 11.78,7.04 18,9 6.23,1.96 13.04,7 18.48,9.52 5.43,2.53 9.17,16.76 3.75,19.25 z"
       id="path70" />
  </g>
  <g
     fill="#a9a9a9"
     fill-opacity="1"
     stroke="None"
     id="g71"
     transform="translate(-185.39189,-157.39125)">
    <path
       d="m 393,372 c 4.84,-6.13 15.98,-6.64 22.78,-10.22 6.79,-3.59 15.66,-6.19 22.52,-10.47 6.87,-4.29 13.52,-8.13 19.7,-13.31 -11.26,6.21 -22.1,11.72 -34.31,15.69 -12.2,3.98 -25.61,4.55 -30.69,18.31 z"
       id="path71" />
  </g>
  <g
     fill="#f9f9f9"
     fill-opacity="1"
     stroke="None"
     id="g72"
     transform="translate(-185.39189,-157.39125)">
    <path
       d="m 271,419 c -0.04,2.09 -0.5,4.98 0,7 6.09,24.63 34.8,39.11 59.02,34.02 24.23,-5.09 43.15,-30.48 39.98,-56.02 -7.73,-23.19 -32.4,-37.13 -56.33,-33.33 -23.93,3.8 -42.25,24.05 -42.67,48.33 m 54,-18 c 22.55,5.25 14.09,43.84 -10.22,37.22 C 290.47,431.6 298.9,394.93 325,401 Z"
       id="path72" />
  </g>
  <g
     fill="#f9f9f9"
     fill-opacity="1"
     stroke="None"
     id="g73"
     transform="translate(-185.39189,-157.39125)">
    <path
       d="m 636,432 c 9.22,23.78 37.32,32.56 61.67,27.67 C 722.03,454.78 737.11,429.08 734,404 724.96,378.55 698.61,364.59 672.02,372.02 645.44,379.46 631.45,405.06 636,432 m 59,-31 c 23.07,5.72 13.6,44.4 -10.67,37.67 C 660.06,431.94 669.26,394.62 695,401 Z"
       id="path73" />
  </g>
  <g
     fill="#b1b1b1"
     fill-opacity="1"
     stroke="None"
     id="g76"
     transform="translate(-185.39189,-157.39125)">
    <path
       d="m 271,426 c 2.43,16.98 8.24,33.43 23.92,43.08 15.69,9.64 37.93,9.12 52.85,-0.31 14.92,-9.43 24.88,-24.47 25.23,-41.77 0.05,-2.66 0.05,-5.34 0,-8 -0.11,-5.68 -1.38,-10.15 -3,-15 3.17,25.54 -15.75,50.93 -39.98,56.02 C 305.8,465.11 277.09,450.63 271,426 Z"
       id="path76" />
  </g>
  <g
     fill="#b2b2b2"
     fill-opacity="1"
     stroke="None"
     id="g77"
     transform="translate(-185.39189,-157.39125)">
    <path
       d="m 636,432 c 4.31,25.49 26.62,45.26 53,44 26.38,-1.26 47.1,-22.79 48,-49 0.08,-2.32 0.04,-4.68 0,-7 -0.1,-5.95 -1.19,-10.91 -3,-16 3.11,25.08 -11.97,50.78 -36.33,55.67 C 673.32,464.56 645.22,455.78 636,432 Z"
       id="path77" />
  </g>
  <g
     fill="#424242"
     fill-opacity="1"
     stroke="None"
     id="g78"
     transform="translate(-185.39189,-157.39125)">
    <path
       d="m 271,426 c -0.5,-2.02 -0.04,-4.91 0,-7 -0.28,2.34 -0.35,4.57 0,7 z"
       id="path78" />
  </g>
  <g
     fill="#6b6b6b"
     fill-opacity="1"
     stroke="None"
     id="g79"
     transform="translate(-185.39189,-157.39125)">
    <path
       d="m 373,427 c 0.31,-2.6 0.32,-5.34 0,-8 0.05,2.66 0.05,5.34 0,8 z"
       id="path79" />
  </g>
  <g
     fill="#5a5a5a"
     fill-opacity="1"
     stroke="None"
     id="g80"
     transform="translate(-185.39189,-157.39125)">
    <path
       d="m 737,427 c 0.34,-2.37 0.29,-4.6 0,-7 0.04,2.32 0.08,4.68 0,7 z"
       id="path80" />
  </g>
  <g
     fill="#fafafa"
     fill-opacity="1"
     stroke="None"
     id="g81"
     transform="translate(-185.39189,-157.39125)">
    <path
       d="m 542,638 c 12.49,-9.01 22.56,-21.65 32.25,-33.75 9.7,-12.09 18.57,-25.84 25.52,-40.48 6.95,-14.64 13.16,-32.67 17.22,-48.78 4.06,-16.11 15.17,-39.2 -3.99,-48.99 -10.72,-3.67 -23.03,-8.56 -34.33,-9.67 -11.3,-1.11 -25.82,-9.16 -36.97,-5.63 -11.15,3.53 -9.42,24.6 -8.03,34.63 1.4,10.03 7.58,25.61 5.31,36.65 -2.27,11.03 -9.52,19.18 -18.75,25.25 -9.23,6.07 -23.65,-1.97 -28.48,-9.98 -4.83,-8.01 -25.92,-11.08 -19.67,-22.17 6.26,-11.09 25.27,6.68 35.69,-0.31 10.42,-6.99 9.23,-22.62 9.23,-34.77 -0.96,-9.89 -1.37,-21.39 -1,-32 -50.33,-1.86 -97.97,8.5 -143,26 0.89,47.97 15.21,92.08 46.08,128.92 30.87,36.83 77.7,52.83 122.92,35.08 m -36,-26 c -2.61,0.47 -4.47,0.41 -7,0 -8.26,-0.41 -19.58,-5.58 -17,-16 8.68,-4.69 18.81,1.34 28,-2 6.45,-3.12 5.01,-10.77 5,-17 -1,0 -2,0 -3,0 -8.72,3.26 -14.76,0.12 -23.22,-3.78 -8.47,-3.89 -15.24,4.8 -24.78,2.78 -9.54,-2.02 1.35,-8.62 6.75,-12.25 5.4,-3.63 10.35,-12.82 18.25,-11.75 7.9,1.07 13.75,7.12 20.7,1.7 6.95,-5.43 16.72,-0.6 21.55,5.05 4.83,5.65 11.17,9.41 17.75,12.25 -12.28,13.21 -19.15,40.26 -43,41 z"
       id="path81" />
  </g>
  <g
     fill="#7f7f7f"
     fill-opacity="1"
     stroke="None"
     id="g82"
     transform="translate(-185.39189,-157.39125)">
    <path
       d="m 517,480 c 0,-4.59 0.6,-12.77 0,-17 -0.6,-4.23 2.21,-12.76 -1,-15 -0.37,10.61 0.04,22.11 1,32 z"
       id="path82" />
  </g>
  <g
     fill="#f7f7f7"
     fill-opacity="1"
     stroke="None"
     id="g83"
     transform="translate(-185.39189,-157.39125)">
    <path
       d="m 360,496 c -9.41,10.29 -28.89,18.39 -42,22 -11.07,3.54 -22.03,7.78 -34,8 -8.9,22.05 -40.71,21.81 -52.25,2.25 -11.53,-19.57 -7.9,-45.83 6.25,-63.25 -28.91,13.26 -40.47,50.54 -22.25,77.25 18.21,26.72 61.73,23.63 86.56,12.06 C 327.13,542.73 354.05,523.99 360,496 Z"
       id="path83" />
  </g>
  <g
     fill="#a9a9a9"
     fill-opacity="1"
     stroke="None"
     id="g84"
     transform="translate(-185.39189,-157.39125)">
    <path
       d="m 774,470 c -0.01,-0.33 0.67,-1.01 1,-1 -1.01,-1.71 -2.78,-4.05 -5,-4 0.58,2.1 3.05,3.39 4,5 z"
       id="path84" />
  </g>
  <g
     fill="#aeaeae"
     fill-opacity="1"
     stroke="None"
     id="g85"
     transform="translate(-185.39189,-157.39125)">
    <path
       d="m 542,638 c 9.2,-3.61 18.37,-8.63 26.3,-14.7 7.94,-6.06 15.11,-11.23 21.95,-19.05 6.83,-7.83 11.51,-15.03 16.98,-24.02 5.47,-8.99 9.01,-17.74 12.99,-28.01 3.99,-10.27 6.18,-20.28 9.45,-31.55 3.28,-11.27 2.31,-24.2 4.4,-36.6 2.1,-12.39 -10.5,-14.46 -21.07,-18.07 19.16,9.79 8.05,32.88 3.99,48.99 -4.06,16.11 -10.27,34.14 -17.22,48.78 -6.95,14.64 -15.82,28.39 -25.52,40.48 -9.69,12.1 -19.76,24.74 -32.25,33.75 z"
       id="path85" />
  </g>
  <g
     fill="#f6f6f6"
     fill-opacity="1"
     stroke="None"
     id="g86"
     transform="translate(-185.39189,-157.39125)">
    <path
       d="m 774,470 c 10.21,18.29 13.31,43.7 -0.25,60.75 C 760.2,547.8 731.81,547.13 724,526 c -15.7,-0.38 -29.38,-7.92 -44,-12 -5.9,-1.64 -12.52,-4.79 -17.23,-8.77 -4.71,-3.98 -12.51,-5.44 -15.77,-11.23 1.11,16.58 15.91,29.49 27.75,41.25 11.85,11.75 28.73,18.58 45.23,23.77 16.49,5.2 40.71,6.12 56.79,-3.25 16.08,-9.37 24.93,-25.82 24.22,-44.76 C 800.28,492.06 788.57,480.15 775,469 c -0.33,-0.01 -1.01,0.67 -1,1 z"
       id="path86" />
  </g>
  <g
     fill="#8f8f8f"
     fill-opacity="1"
     stroke="None"
     id="g87"
     transform="translate(-185.39189,-157.39125)">
    <path
       d="m 647,494 c 3.26,5.79 11.06,7.25 15.77,11.23 4.71,3.98 11.33,7.13 17.23,8.77 -5,-2.56 -13.59,-8.88 -18.3,-11.7 -4.72,-2.82 -14.87,-10.81 -14.7,-8.3 z"
       id="path87" />
  </g>
  <g
     fill="#909090"
     fill-opacity="1"
     stroke="None"
     id="g88"
     transform="translate(-185.39189,-157.39125)">
    <path
       d="m 318,518 c 13.11,-3.61 32.59,-11.71 42,-22 0.03,-1.14 1.53,-1.72 1,-3 -13.34,9.99 -28.37,17.77 -43,25 z"
       id="path88" />
  </g>
  <g
     fill="#f5f5f5"
     fill-opacity="1"
     stroke="None"
     id="g89"
     transform="translate(-185.39189,-157.39125)">
    <path
       d="m 262,499 c -20.31,-4.21 -27.26,23.96 -8.02,30.02 19.23,6.07 27.16,-26.06 8.02,-30.02 z"
       id="path89" />
  </g>
  <g
     fill="#f5f5f5"
     fill-opacity="1"
     stroke="None"
     id="g90"
     transform="translate(-185.39189,-157.39125)">
    <path
       d="m 754,499 c -20.26,-4.2 -27.41,24.06 -8.02,30.02 19.39,5.97 27.06,-26.08 8.02,-30.02 z"
       id="path90" />
  </g>
  <g
     fill="#ababab"
     fill-opacity="1"
     stroke="None"
     id="g91"
     transform="translate(-185.39189,-157.39125)">
    <path
       d="m 360,542 c -2.06,2.61 -4.61,5.81 -7,8 8.24,-6.23 11.81,-5.61 14.32,4.68 2.51,10.29 -0.47,16.87 -6.57,24.07 -6.09,7.2 -17.47,5.65 -25.75,4.25 10.43,6.45 31.81,9.01 36.22,-5.78 4.42,-14.78 -0.57,-28.55 -5.22,-42.22 -2.67,1.61 -4.08,4.56 -6,7 z"
       id="path91" />
  </g>
  <g
     fill="#afafaf"
     fill-opacity="1"
     stroke="None"
     id="g92"
     transform="translate(-185.39189,-157.39125)">
    <path
       d="m 635,562 c -0.1,2.63 -0.14,5.37 0,8 1.17,21.49 21.22,19.97 37,14 -7.88,1.09 -18.65,0.63 -25.25,-6.75 -6.6,-7.38 -7.5,-14.72 -4.97,-25.47 2.52,-10.75 10.84,-1.07 18.22,3.22 -6.32,-6.62 -12.37,-13.82 -19,-20 -1.97,9.08 -5.64,17.5 -6,27 z"
       id="path92" />
  </g>
  <g
     fill="#585858"
     fill-opacity="1"
     stroke="None"
     id="g93"
     transform="translate(-185.39189,-157.39125)">
    <path
       d="m 350,552 c 0.94,-0.71 2.1,-1.32 3,-2 2.39,-2.19 4.94,-5.39 7,-8 -3.01,3.25 -6.8,6.8 -10,10 z"
       id="path93" />
  </g>
  <g
     fill="#f7f7f7"
     fill-opacity="1"
     stroke="None"
     id="g94"
     transform="translate(-185.39189,-157.39125)">
    <path
       d="m 353,550 c -0.9,0.68 -2.06,1.29 -3,2 -10.6,10.35 -24.78,15.51 -38,20 6.3,5.31 14.72,9.6 23,11 8.28,1.4 19.66,2.95 25.75,-4.25 6.1,-7.2 9.08,-13.78 6.57,-24.07 C 364.81,544.39 361.24,543.77 353,550 Z"
       id="path94" />
  </g>
  <g
     fill="#f8f8f8"
     fill-opacity="1"
     stroke="None"
     id="g95"
     transform="translate(-185.39189,-157.39125)">
    <path
       d="m 672,584 c 8.42,-2.99 17.14,-6.17 24,-12 -13.25,-2.78 -24.59,-10.37 -36,-17 -7.38,-4.29 -15.7,-13.97 -18.22,-3.22 -2.53,10.75 -1.63,18.09 4.97,25.47 6.6,7.38 17.37,7.84 25.25,6.75 z"
       id="path95" />
  </g>
  <g
     fill="#656565"
     fill-opacity="1"
     stroke="None"
     id="g97"
     transform="translate(-185.39189,-157.39125)">
    <path
       d="m 635,570 c -0.14,-2.63 -0.1,-5.37 0,-8 -0.39,2.75 -0.46,5.17 0,8 z"
       id="path97" />
  </g>
  <g
     fill="#b0b0b0"
     fill-opacity="1"
     stroke="None"
     id="g98"
     transform="translate(-185.39189,-157.39125)">
    <path
       d="m 512,577 c 1,0 2,0 3,0 0.01,6.23 1.45,13.88 -5,17 9.07,-2.53 18.96,-7.8 21,-18 -6.22,-6 -13.1,-1.21 -19,1 z"
       id="path98" />
  </g>
  <g
     fill="#f5f5f5"
     fill-opacity="1"
     stroke="None"
     id="g99"
     transform="translate(-185.39189,-157.39125)">
    <path
       d="m 273,575 c -13.51,-1.95 -8.8,14.73 -4.77,21.77 4.03,7.05 7.47,17.93 10.99,26.01 3.53,8.07 7.51,16.48 10.8,25.2 3.3,8.71 7.63,17.03 10.67,26.33 3.05,9.29 9.28,14.66 10.54,25.46 1.26,10.81 19.26,12.77 17.7,1.3 -1.57,-11.46 -7.69,-15.75 -10.61,-25.39 -2.92,-9.65 -7.35,-17.61 -10.55,-26.45 -3.2,-8.84 -7.39,-17.11 -10.79,-25.2 -3.41,-8.1 -6.87,-19.15 -11,-26 C 281.84,591.17 281.84,576.28 273,575 Z"
       id="path99" />
  </g>
  <g
     fill="#f5f5f5"
     fill-opacity="1"
     stroke="None"
     id="g100"
     transform="translate(-185.39189,-157.39125)">
    <path
       d="m 766,575 c -13.87,-3.33 -9.14,15.19 -4.92,21.92 4.21,6.73 6.83,17.49 10.6,25.4 3.77,7.92 7.25,17.83 10.55,26.45 3.3,8.62 8.04,15.81 10.84,25.16 2.81,9.34 8.7,15.08 10.16,25.84 1.46,10.76 19.41,12.69 17.7,1.3 -1.72,-11.39 -7.53,-16.12 -10.16,-25.84 -2.63,-9.72 -7.68,-16.39 -10.79,-25.21 -3.12,-8.81 -7.04,-18.36 -10.67,-26.32 -3.64,-7.97 -6.56,-18.79 -10.53,-25.48 C 774.8,591.54 774.12,576.95 766,575 Z"
       id="path100" />
  </g>
  <g
     fill="#f6f6f6"
     fill-opacity="1"
     stroke="None"
     id="g101"
     transform="translate(-185.39189,-157.39125)">
    <path
       d="m 247,576 c -11.87,-4.83 -14.15,11.81 -17.69,19.31 -3.55,7.49 -6.94,17.25 -10.53,25.47 -3.59,8.22 -7.01,16.42 -10.8,25.2 -3.8,8.77 -6.02,16.27 -10.2,25.8 -4.19,9.52 -5.47,14.33 -10.8,25.2 -5.34,10.86 11.05,17.29 15.09,6.09 4.05,-11.19 6.3,-16.32 10.16,-25.84 3.86,-9.52 7.06,-16.86 10.46,-25.54 3.41,-8.67 7.77,-17.47 10.54,-25.46 2.76,-7.99 8.94,-18.25 10.84,-25.16 1.91,-6.9 12.62,-21.13 2.93,-25.07 z"
       id="path101" />
  </g>
  <g
     fill="#f6f6f6"
     fill-opacity="1"
     stroke="None"
     id="g102"
     transform="translate(-185.39189,-157.39125)">
    <path
       d="m 740,576 c -11.06,-4.5 -14.19,9.76 -17.08,16.92 -2.88,7.17 -6.69,15.68 -9.94,23.06 -3.26,7.37 -6.61,15.79 -9.67,23.33 -3.07,7.53 -7.66,16.16 -10.33,23.67 -2.68,7.5 -7.61,16.19 -9.66,23.34 -2.05,7.15 -11.5,17.28 -2.39,22.75 9.11,5.47 14.73,-8.3 16.76,-15.38 2.04,-7.07 7.26,-15.72 9.99,-23.01 2.73,-7.29 6.5,-16.22 9.54,-23.46 3.05,-7.24 7.3,-17.01 10.01,-23.99 2.71,-6.99 7.88,-17.11 9.85,-23.15 1.96,-6.05 11.67,-20.52 2.92,-24.08 z"
       id="path102" />
  </g>
  <g
     fill="#878787"
     fill-opacity="1"
     stroke="None"
     id="g103"
     transform="translate(-185.39189,-157.39125)">
    <path
       d="m 506,612 c -2.28,0.14 -4.72,0.11 -7,0 2.53,0.41 4.39,0.47 7,0 z"
       id="path103" />
  </g>
  <g
     fill="#fbfbfb"
     fill-opacity="1"
     stroke="None"
     id="g104"
     transform="translate(-185.39189,-157.39125)">
    <path
       d="m 646,830 c 1.08,-6.62 -7.45,-11.8 -10.25,-17.75 -2.8,-5.96 -9.18,-9.11 -14.83,-13.17 -5.64,-4.07 -13.06,-8.21 -20.92,-8.08 -11.94,1.94 -26.39,5.03 -35.77,13.23 -9.38,8.2 -19.46,11.4 -27.48,21.52 -8.02,10.12 -29.33,14.25 -25.53,-2.53 3.81,-16.78 6.73,-26.33 6.78,-42.22 0.05,-15.89 -2.71,-28.14 -7.68,-41.32 C 505.36,726.5 500.4,720.64 492,710 c -2.42,-2.61 -5.51,-5.51 -8,-8 -11.57,-9.89 -22.45,-20.13 -34,-30 -5.32,-4.55 -10.5,-9.73 -15,-15 -10.35,-11.7 -20.44,-23.56 -28,-37 4.88,35.33 10.76,83.79 -4.69,117.31 -15.46,33.51 -43.02,48.06 -75.31,59.69 77.82,96.26 224.22,105.61 319,33 z"
       id="path104" />
  </g>
  <g
     fill="#848484"
     fill-opacity="1"
     stroke="None"
     id="g105"
     transform="translate(-185.39189,-157.39125)">
    <path
       d="m 450,672 c -4.87,-4.87 -10.08,-10.08 -15,-15 4.5,5.27 9.68,10.45 15,15 z"
       id="path105" />
  </g>
  <g
     fill="#757575"
     fill-opacity="1"
     stroke="None"
     id="g106"
     transform="translate(-185.39189,-157.39125)">
    <path
       d="m 492,710 c -2.33,-2.95 -5.1,-5.52 -8,-8 2.49,2.49 5.58,5.39 8,8 z"
       id="path106" />
  </g>
  <g
     fill="#fafafa"
     fill-opacity="1"
     stroke="None"
     id="g107"
     transform="translate(-185.39189,-157.39125)">
    <path
       d="m 217,769 c 6.71,2.24 14.93,0.37 22,1 7.07,0.63 14.89,-0.57 21.22,-1.78 6.33,-1.2 13.27,-1.78 18.8,-4.2 5.54,-2.41 10.99,-4.68 16.05,-6.95 5.07,-2.26 9.51,-6.19 13.18,-9.82 3.66,-3.63 10.66,-5.59 13,-10 2.34,-4.41 12.06,-5.99 12.75,-10.25 -0.51,-7.95 -20.88,-3.09 -29,-4 -8.12,-0.91 -23.36,0.27 -33,0 -9.64,-0.27 -22.76,-0.19 -33,0 -10.24,0.19 -22.66,-0.77 -33,0 -10.34,0.77 -24.62,-5.04 -19.31,10.31 5.32,15.34 17.24,26.82 30.31,35.69 z"
       id="path107" />
  </g>
  <g
     fill="#fafafa"
     fill-opacity="1"
     stroke="None"
     id="g108"
     transform="translate(-185.39189,-157.39125)">
    <path
       d="m 689,756 c 2.2,2.2 4.78,4.95 7,7 2.59,2.04 5.09,3.75 8,5 8.13,3.51 20.22,1.97 29,2 8.78,0.03 19.46,-0.99 27.02,-3.98 7.57,-2.98 16.62,-3.82 23.05,-7.95 6.44,-4.13 13.65,-6.91 18.63,-12.37 4.97,-5.46 13.93,-7.74 18.3,-12.7 4.94,-13.07 -5.86,-9.76 -16,-10 -10.14,-0.24 -19.81,0.25 -30,0 -10.19,-0.25 -19.65,0.42 -30,0 -10.35,-0.42 -19.21755,-0.53925 -30,0 -11.7887,0.58958 -16.41955,0.15651 -30,0 -11.8261,-0.13629 -11.73,6.5 -6.77,14.77 4.96,8.27 5.77,11.21 11.77,18.23 z"
       id="path108" />
  </g>
  <g
     fill="#b1b1b1"
     fill-opacity="1"
     stroke="None"
     id="g109"
     transform="translate(-185.39189,-157.39125)">
    <path
       d="m 217,769 c 11.1,7.54 22.85,13 37,13 3.33,0 6.67,0 10,0 8.31,0 19.03,-2.42 25.92,-6.08 6.9,-3.65 14.34,-6.21 19.33,-11.67 4.99,-5.46 12.03,-9.91 14.83,-16.17 2.8,-6.26 10.36,-14.22 9.92,-21.08 -0.69,4.26 -10.41,5.84 -12.75,10.25 -2.34,4.41 -9.34,6.37 -13,10 -3.67,3.63 -8.11,7.56 -13.18,9.82 -5.06,2.27 -10.51,4.54 -16.05,6.95 -5.53,2.42 -12.47,3 -18.8,4.2 -6.33,1.21 -14.15,2.41 -21.22,1.78 -7.07,-0.63 -15.29,1.24 -22,-1 z"
       id="path109" />
  </g>
  <g
     fill="#b1b1b1"
     fill-opacity="1"
     stroke="None"
     id="g110"
     transform="translate(-185.39189,-157.39125)">
    <path
       d="m 704,768 c 40.25,27.33 98.14,12.21 116,-35 -4.37,4.96 -13.33,7.24 -18.3,12.7 -4.98,5.46 -12.19,8.24 -18.63,12.37 -6.43,4.13 -15.48,4.97 -23.05,7.95 -7.56,2.99 -18.24,4.01 -27.02,3.98 -8.78,-0.03 -20.87,1.51 -29,-2 z"
       id="path110" />
  </g>
  <g
     fill="#7b7b7b"
     fill-opacity="1"
     stroke="None"
     id="g111"
     transform="translate(-185.39189,-157.39125)">
    <path
       d="m 696,763 c -2.22,-2.05 -4.8,-4.8 -7,-7 2.14,2.51 4.34,4.9 7,7 z"
       id="path111" />
  </g>
  <g
     fill="#5a5a5a"
     fill-opacity="1"
     stroke="None"
     id="g112"
     transform="translate(-185.39189,-157.39125)">
    <path
       d="m 264,782 c -3.33,0 -6.67,0 -10,0 3.07,0.3 6.86,0.3 10,0 z"
       id="path112" />
  </g>
  <g
     fill="#626262"
     fill-opacity="1"
     stroke="None"
     id="g113"
     transform="translate(-185.39189,-157.39125)">
    <path
       d="m 611,790 c 3.33,0 6.67,-0.07 10,0 -3.17,-0.38 -6.8,-0.31 -10,0 z"
       id="path113" />
  </g>
  <g
     fill="#b2b2b2"
     fill-opacity="1"
     stroke="None"
     id="g114"
     transform="translate(-185.39189,-157.39125)">
    <path
       d="m 600,791 c 7.86,-0.13 15.28,4.01 20.92,8.08 5.65,4.06 12.03,7.21 14.83,13.17 2.8,5.95 11.33,11.13 10.25,17.75 5.49,-4.2 8.72,-6.72 14.75,-11.25 6.03,-4.53 2.33,-10.17 -3,-14.5 -5.33,-4.33 -9.78,-7.28 -16.06,-9.94 -6.27,-2.67 -13.67,-4.17 -20.69,-4.31 -3.33,-0.07 -6.67,0 -10,0 -3.85,0 -7.79,0.48 -11,1 z"
       id="path114" />
  </g>
</svg>
